<?xml version="1.0" standalone="no"?><!DOCTYPE svg PUBLIC "-//W3C//DTD SVG 1.1//EN" "http://www.w3.org/Graphics/SVG/1.1/DTD/svg11.dtd"><svg t="1632052134607" class="icon" viewBox="0 0 1024 1024" version="1.1" xmlns="http://www.w3.org/2000/svg" p-id="2691" xmlns:xlink="http://www.w3.org/1999/xlink" width="200" height="200"><defs><style type="text/css"></style></defs><path d="M696.18 206.45C800.86 96.27 928.6 224.55 873.73 336.1c-28.32 72.13-176.01 426.63-526.98 542.92-116.69 56.28-268.21-94.17-112.4-201.04S565.39 430.69 607.87 344.5s66.9-118.96 88.31-138.05z" fill="#FE8E46" p-id="2692"></path><path d="M781.98 164.33c74.56-0.01 131.81 90.34 91.75 171.77-28.32 72.13-176.01 426.64-526.98 542.92-17.46 8.42-35.72 12.22-53.59 12.22-101.57 0-191.3-122.38-58.8-213.26C390.17 571.11 565.39 430.69 607.87 344.5s66.9-118.96 88.31-138.06c28.27-29.74 58.22-42.11 85.8-42.11m0.01-52c-30.75 0-76.74 9.91-122.04 56.77-14.94 13.62-28.79 30.39-43.42 52.57-16.19 24.53-34.28 57.19-55.3 99.84-9.28 18.83-38.72 62.4-131.6 142.61-61.17 52.83-140.96 113.54-224.68 170.97-36.94 25.34-62.85 54.96-77.02 88.05-13.93 32.52-15.86 67.21-5.6 100.31 21.52 69.41 93.36 119.78 170.84 119.78 25.44 0 49.95-5.33 72.93-15.85 85.52-28.73 166.08-72.95 239.49-131.45 60.64-48.32 116.9-106.76 167.22-173.69 37.9-50.41 72.29-105.39 102.21-163.4 17.43-33.79 33.03-68.06 46.39-101.87 26.16-54.9 22.89-117.89-8.9-168.95-29.52-47.39-78.31-75.69-130.52-75.69z" fill="#463218" p-id="2693"></path><path d="M854.4 197.28c2.96 22.9-0.41 47.53-12.15 71.39-28.33 72.13-176.02 426.63-526.98 542.92-52.42 25.28-111.86 8.84-147.32-26.62 3.34 74.59 99.18 132.45 178.81 94.05C697.72 762.73 845.41 408.23 873.73 336.1c25.02-50.86 12.07-105.19-19.33-138.82z" fill="#E56823" p-id="2694"></path><path d="M201.81 829.64a22.083 22.083 0 0 0-14.1-14.58l-75.37-25.4c-11.56-3.89-24.09 2.32-27.98 13.88-3.9 11.56 2.32 24.09 13.87 27.98l45.86 15.45-28.1 36.03c-7.5 9.62-5.78 23.5 3.83 31 4.03 3.15 8.82 4.67 13.57 4.67 6.57 0 13.08-2.92 17.43-8.5l47.25-60.59c4.4-5.66 5.79-13.09 3.74-19.94zM936.14 117.39c-7.5-9.62-21.38-11.33-31-3.83l-36.03 28.1-15.45-45.86c-3.89-11.56-16.42-17.77-27.98-13.88-11.56 3.9-17.77 16.42-13.87 27.98l25.4 75.37a22.104 22.104 0 0 0 14.58 14.1 22.106 22.106 0 0 0 19.93-3.74l60.59-47.25c9.61-7.49 11.33-21.37 3.83-30.99z" fill="#463218" p-id="2695"></path><path d="M777.01 354.852l40.732-104.585 41.158 16.029-40.732 104.585z" fill="#FFFFFF" p-id="2696"></path></svg>